<svg width="70" height="70" viewBox="0 0 70 70" fill="none" xmlns="http://www.w3.org/2000/svg">
<path d="M49.0744 24.2517V62.4356C49.0744 67.3095 45.5787 69.3598 41.3099 67.0069L28.1001 59.6457C26.6884 58.8726 24.4027 58.8726 22.991 59.6457L9.78126 67.0069C5.51246 69.3598 2.01675 67.3095 2.01675 62.4356V24.2517C2.01675 18.5039 6.72252 13.7982 12.4703 13.7982H38.6209C44.3686 13.7982 49.0744 18.5039 49.0744 24.2517Z" stroke="#F3F3F3" stroke-width="4" stroke-linecap="round" stroke-linejoin="round"/>
<path d="M20.8062 39.1082L30.2849 29.6295" stroke="#F3F3F3" stroke-width="4" stroke-linecap="round" stroke-linejoin="round"/>
<path d="M30.2849 39.1082L20.8062 29.6295" stroke="#F3F3F3" stroke-width="4" stroke-linecap="round" stroke-linejoin="round"/>
<path d="M69.2419 11.2097V49.3937C69.2419 54.2675 65.7462 56.3178 61.4774 53.965L49.0744 47.0408V24.2514C49.0744 18.5037 44.3686 13.798 38.6209 13.798H22.1843V11.2097C22.1843 5.46199 26.8901 0.756283 32.6378 0.756283H58.7884C64.5362 0.756283 69.2419 5.46199 69.2419 11.2097Z" fill="#E7E7E7" stroke="#F3F3F3" stroke-width="1.5" stroke-linecap="round" stroke-linejoin="round"/>
</svg>
