<svg width="15" height="20" viewBox="0 0 15 20" fill="none" xmlns="http://www.w3.org/2000/svg">
<path d="M7.04004 0C4.42004 0 2.29004 2.13 2.29004 4.75C2.29004 7.32 4.30004 9.4 6.92004 9.49C7.00004 9.48 7.08004 9.48 7.14004 9.49C7.16004 9.49 7.17004 9.49 7.19004 9.49C7.20004 9.49 7.20004 9.49 7.21004 9.49C9.77004 9.4 11.78 7.32 11.79 4.75C11.79 2.13 9.66004 0 7.04004 0Z" fill="#F7804A"/>
<path d="M12.12 12.1499C9.33 10.2899 4.78 10.2899 1.97 12.1499C0.7 12.9999 0 14.1499 0 15.3799C0 16.6099 0.7 17.7499 1.96 18.5899C3.36 19.5299 5.2 19.9999 7.04 19.9999C8.88 19.9999 10.72 19.5299 12.12 18.5899C13.38 17.7399 14.08 16.5999 14.08 15.3599C14.07 14.1299 13.38 12.9899 12.12 12.1499Z" fill="#F7804A"/>
</svg>
