<svg width="22" height="22" viewBox="0 0 22 22" fill="none" xmlns="http://www.w3.org/2000/svg">
<path d="M16.099 4.91407C18.1551 6.34305 19.5738 8.61502 19.8617 11.2365" stroke="#111111" stroke-width="1.5" stroke-linecap="round" stroke-linejoin="round"/>
<path d="M2.25135 11.288C2.51864 8.67676 3.91678 6.40478 5.9523 4.96552" stroke="#111111" stroke-width="1.5" stroke-linecap="round" stroke-linejoin="round"/>
<path d="M7.0831 20.0983C8.27563 20.7048 9.63264 21.0441 11.0616 21.0441C12.4392 21.0441 13.7345 20.7357 14.8962 20.1702" stroke="#111111" stroke-width="1.5" stroke-linecap="round" stroke-linejoin="round"/>
<path d="M11.0617 6.48694C12.6401 6.48694 13.9197 5.20739 13.9197 3.62899C13.9197 2.05058 12.6401 0.771032 11.0617 0.771032C9.48331 0.771032 8.20376 2.05058 8.20376 3.62899C8.20376 5.20739 9.48331 6.48694 11.0617 6.48694Z" stroke="#111111" stroke-width="1.5" stroke-linecap="round" stroke-linejoin="round"/>
<path d="M3.62899 19.0498C5.20739 19.0498 6.48695 17.7703 6.48695 16.1919C6.48695 14.6135 5.20739 13.3339 3.62899 13.3339C2.05058 13.3339 0.771032 14.6135 0.771032 16.1919C0.771032 17.7703 2.05058 19.0498 3.62899 19.0498Z" stroke="#111111" stroke-width="1.5" stroke-linecap="round" stroke-linejoin="round"/>
<path d="M18.3711 19.0498C19.9495 19.0498 21.229 17.7703 21.229 16.1919C21.229 14.6135 19.9495 13.3339 18.3711 13.3339C16.7927 13.3339 15.5131 14.6135 15.5131 16.1919C15.5131 17.7703 16.7927 19.0498 18.3711 19.0498Z" stroke="#111111" stroke-width="1.5" stroke-linecap="round" stroke-linejoin="round"/>
</svg>
