<svg width="14" height="14" viewBox="0 0 14 14" fill="none" xmlns="http://www.w3.org/2000/svg">
<path d="M12.4423 5.41804V5.41803H12.439H9.61102C9.09363 5.41803 8.86571 5.32224 8.76108 5.22964C8.67295 5.15164 8.57501 4.98755 8.57501 4.55703V1.38601C8.57501 0.960075 8.67244 0.794777 8.76184 0.715345C8.86707 0.621846 9.0955 0.525003 9.61102 0.525003H12.439C12.9546 0.525003 13.183 0.621846 13.2882 0.715345C13.3776 0.794777 13.475 0.960075 13.475 1.38601V4.56403C13.475 4.99035 13.3774 5.15485 13.289 5.23314C13.1849 5.32526 12.9576 5.42128 12.4423 5.41804Z" fill="#111111" stroke="#111111"/>
<path d="M13.475 9.61102V12.439C13.475 12.943 13.3705 13.1608 13.2657 13.2657C13.1608 13.3705 12.943 13.475 12.439 13.475H9.61102C9.10709 13.475 8.88921 13.3705 8.78437 13.2657C8.67953 13.1608 8.57501 12.943 8.57501 12.439V9.61102C8.57501 9.10709 8.67953 8.88921 8.78437 8.78437C8.88921 8.67953 9.10709 8.57501 9.61102 8.57501H12.439C12.943 8.57501 13.1608 8.67953 13.2657 8.78437C13.3705 8.88921 13.475 9.10709 13.475 9.61102Z" fill="#111111" stroke="#111111"/>
<path d="M4.39233 5.41804V5.41803H4.38903H1.56101C1.04362 5.41803 0.815708 5.32224 0.711069 5.22964C0.622942 5.15164 0.525003 4.98755 0.525003 4.55703V1.38601C0.525003 0.960075 0.622435 0.794777 0.711835 0.715345C0.817067 0.621846 1.04549 0.525003 1.56101 0.525003H4.38903C4.90455 0.525003 5.13297 0.621846 5.2382 0.715345C5.3276 0.794777 5.42503 0.960075 5.42503 1.38601V4.56403C5.42503 4.99035 5.32743 5.15485 5.23897 5.23314C5.13488 5.32526 4.90756 5.42128 4.39233 5.41804Z" fill="#111111" stroke="#111111"/>
<path d="M5.95004 12.439V9.61102C5.95004 8.49801 5.50203 8.05001 4.38903 8.05001H1.56101C0.448003 8.05001 0 8.49801 0 9.61102V12.439C0 13.552 0.448003 14 1.56101 14H4.38903C5.50203 14 5.95004 13.552 5.95004 12.439Z" fill="#111111"/>
</svg>
