<svg width="14" height="14" viewBox="0 0 14 14" fill="none" xmlns="http://www.w3.org/2000/svg">
<path d="M1.47001 8.57501H12.5301C12.9957 8.57501 13.1857 8.67644 13.2764 8.77287C13.3747 8.87735 13.4751 9.10023 13.4751 9.61102V12.439C13.4751 12.9498 13.3747 13.1727 13.2764 13.2772C13.1857 13.3736 12.9957 13.475 12.5301 13.475H1.47001C1.00441 13.475 0.814354 13.3736 0.723638 13.2772C0.625345 13.1727 0.525003 12.9498 0.525003 12.439V9.61102C0.525003 9.10023 0.625345 8.87735 0.723638 8.77287C0.814354 8.67644 1.00441 8.57501 1.47001 8.57501Z" fill="#E7E7E7" stroke="#E7E7E7"/>
<path d="M1.47001 0.525003H12.5301C12.9957 0.525003 13.1857 0.626435 13.2764 0.722863C13.3747 0.827345 13.4751 1.05023 13.4751 1.56101V4.38903C13.4751 4.89981 13.3747 5.12269 13.2764 5.22717C13.1857 5.3236 12.9957 5.42503 12.5301 5.42503H1.47001C1.00441 5.42503 0.814354 5.3236 0.723638 5.22717C0.625345 5.12269 0.525003 4.89981 0.525003 4.38903V1.56101C0.525003 1.05023 0.625345 0.827344 0.723638 0.722863C0.814354 0.626435 1.00441 0.525003 1.47001 0.525003Z" fill="#E7E7E7" stroke="#E7E7E7"/>
</svg>
