<svg width="18" height="21" viewBox="0 0 18 21" fill="none" xmlns="http://www.w3.org/2000/svg">
<path d="M17.7465 6.79437C16.6817 2.1093 12.5949 0 9.00505 0C9.00505 0 9.00505 0 8.99491 0C5.41519 0 1.31829 2.09915 0.253499 6.78422C-0.93298 12.0169 2.27153 16.4485 5.17181 19.2372C6.24674 20.2715 7.62589 20.7887 9.00505 20.7887C10.3842 20.7887 11.7634 20.2715 12.8281 19.2372C15.7284 16.4485 18.9329 12.027 17.7465 6.79437ZM9.00505 11.8749C7.24054 11.8749 5.81068 10.4451 5.81068 8.68056C5.81068 6.91606 7.24054 5.4862 9.00505 5.4862C10.7696 5.4862 12.1994 6.91606 12.1994 8.68056C12.1994 10.4451 10.7696 11.8749 9.00505 11.8749Z" fill="#F3F3F3"/>
</svg>
