<svg width="14" height="14" viewBox="0 0 14 14" fill="none" xmlns="http://www.w3.org/2000/svg">
<path d="M12.4422 5.41794V5.41793H12.4389H9.61097C9.09359 5.41793 8.86568 5.32215 8.76104 5.22954C8.67292 5.15155 8.57498 4.98746 8.57498 4.55694V1.38598C8.57498 0.960058 8.67241 0.794762 8.76181 0.715332C8.86704 0.621835 9.09546 0.524994 9.61097 0.524994H12.4389C12.9544 0.524994 13.1829 0.621835 13.2881 0.715332C13.3775 0.794762 13.4749 0.960058 13.4749 1.38598V4.56394C13.4749 4.99026 13.3773 5.15475 13.2889 5.23304C13.1848 5.32516 12.9575 5.42118 12.4422 5.41794Z" fill="#E7E7E7" stroke="#E7E7E7"/>
<path d="M13.4749 9.61084V12.4388C13.4749 12.9427 13.3704 13.1606 13.2656 13.2654C13.1607 13.3703 12.9428 13.4748 12.4389 13.4748H9.61097C9.10706 13.4748 8.88917 13.3703 8.78433 13.2654C8.6795 13.1606 8.57498 12.9427 8.57498 12.4388V9.61084C8.57498 9.10693 8.6795 8.88904 8.78433 8.78421C8.88917 8.67937 9.10706 8.57485 9.61097 8.57485H12.4389C12.9428 8.57485 13.1607 8.67937 13.2656 8.78421C13.3704 8.88904 13.4749 9.10693 13.4749 9.61084Z" fill="#E7E7E7" stroke="#E7E7E7"/>
<path d="M4.39225 5.41794V5.41793H4.38895H1.56098C1.0436 5.41793 0.815693 5.32215 0.711056 5.22954C0.622931 5.15155 0.524994 4.98746 0.524994 4.55694V1.38598C0.524994 0.960058 0.622424 0.794762 0.711822 0.715332C0.817052 0.621835 1.04547 0.524994 1.56098 0.524994H4.38895C4.90446 0.524994 5.13288 0.621835 5.23811 0.715332C5.3275 0.794762 5.42493 0.960058 5.42493 1.38598V4.56394C5.42493 4.99026 5.32733 5.15475 5.23887 5.23304C5.13478 5.32516 4.90747 5.42118 4.39225 5.41794Z" fill="#E7E7E7" stroke="#E7E7E7"/>
<path d="M5.94993 12.4388V9.61084C5.94993 8.49785 5.50193 8.04986 4.38895 8.04986H1.56098C0.447994 8.04986 0 8.49785 0 9.61084V12.4388C0 13.5518 0.447994 13.9998 1.56098 13.9998H4.38895C5.50193 13.9998 5.94993 13.5518 5.94993 12.4388Z" fill="#E7E7E7"/>
</svg>
