<svg width="22" height="22" viewBox="0 0 22 22" fill="none" xmlns="http://www.w3.org/2000/svg">
<path d="M16.0989 4.91396C18.155 6.3429 19.5736 8.61483 19.8615 11.2363L16.0989 4.91396Z" fill="#E7E7E7"/>
<path d="M16.0989 4.91396C18.155 6.3429 19.5736 8.61483 19.8615 11.2363" stroke="#E7E7E7" stroke-width="1.5" stroke-linecap="round" stroke-linejoin="round"/>
<path d="M2.2518 11.2876C2.51909 8.67643 3.91719 6.40451 5.95267 4.96528L2.2518 11.2876Z" fill="#E7E7E7"/>
<path d="M2.2518 11.2876C2.51909 8.67643 3.91719 6.40451 5.95267 4.96528" stroke="#E7E7E7" stroke-width="1.5" stroke-linecap="round" stroke-linejoin="round"/>
<path d="M7.08319 20.0977C8.27569 20.7042 9.63268 21.0435 11.0616 21.0435C12.4392 21.0435 13.7345 20.7351 14.8961 20.1696" stroke="#E7E7E7" stroke-width="1.5" stroke-linecap="round" stroke-linejoin="round"/>
<path d="M11.0615 6.4868C12.6398 6.4868 13.9194 5.20728 13.9194 3.62891C13.9194 2.05054 12.6398 0.771014 11.0615 0.771014C9.48309 0.771014 8.20357 2.05054 8.20357 3.62891C8.20357 5.20728 9.48309 6.4868 11.0615 6.4868Z" stroke="#E7E7E7" stroke-width="1.5" stroke-linecap="round" stroke-linejoin="round"/>
<path d="M3.62891 19.0492C5.20728 19.0492 6.4868 17.7696 6.4868 16.1913C6.4868 14.6129 5.20728 13.3334 3.62891 13.3334C2.05054 13.3334 0.771014 14.6129 0.771014 16.1913C0.771014 17.7696 2.05054 19.0492 3.62891 19.0492Z" stroke="#E7E7E7" stroke-width="1.5" stroke-linecap="round" stroke-linejoin="round"/>
<path d="M18.371 19.0492C19.9494 19.0492 21.2289 17.7696 21.2289 16.1913C21.2289 14.6129 19.9494 13.3334 18.371 13.3334C16.7927 13.3334 15.5131 14.6129 15.5131 16.1913C15.5131 17.7696 16.7927 19.0492 18.371 19.0492Z" stroke="#E7E7E7" stroke-width="1.5" stroke-linecap="round" stroke-linejoin="round"/>
</svg>
