<svg width="17" height="20" viewBox="0 0 17 20" fill="none" xmlns="http://www.w3.org/2000/svg">
<path d="M5.36771 20C4.70605 19.9641 4.08342 19.6756 3.62835 19.194C3.08391 18.6702 2.59807 18.0887 2.17941 17.4599C1.52542 16.5234 1.00846 15.4983 0.644188 14.4157C0.231923 13.251 0.0150423 12.0262 0.00231932 10.7908C-0.0297084 9.57852 0.270493 8.38062 0.87042 7.32677C1.30981 6.56715 1.93654 5.93281 2.6908 5.48429C3.43672 5.03768 4.28791 4.79728 5.15726 4.7877C5.81261 4.82648 6.45662 4.97627 7.06182 5.2307C7.5448 5.44325 8.05198 5.59267 8.57284 5.67475C9.14738 5.55439 9.70879 5.37818 10.2491 5.14862C10.8885 4.89896 11.5655 4.75915 12.2515 4.73509C12.343 4.73509 12.4335 4.73509 12.5209 4.74562C14.0256 4.78876 15.425 5.52743 16.3089 6.74488C15.6191 7.11383 15.0451 7.66684 14.6507 8.34245C14.2564 9.01806 14.0571 9.7898 14.075 10.5719C14.0681 11.1699 14.1881 11.7626 14.427 12.3109C14.6658 12.8592 15.0182 13.3506 15.4608 13.7528C15.8638 14.1366 16.3329 14.4443 16.8456 14.6609C16.7403 14.9766 16.6193 15.2817 16.491 15.589C16.1995 16.2679 15.8399 16.9156 15.4177 17.5219C15.0184 18.1294 14.5537 18.6911 14.0319 19.1971C13.5559 19.6695 12.9214 19.9481 12.2515 19.9789C11.6836 19.9538 11.1258 19.8206 10.6079 19.5864C10.0493 19.3431 9.44912 19.2099 8.84011 19.194C8.21391 19.2063 7.59592 19.3388 7.01973 19.5843C6.52206 19.8089 5.99037 19.9486 5.44662 19.9979L5.36771 20ZM8.68227 4.73509C8.60335 4.73509 8.52443 4.73509 8.44552 4.72562C8.42892 4.60037 8.42013 4.47421 8.41921 4.34787C8.45363 3.29682 8.86438 2.29308 9.57668 1.51944C9.97508 1.07482 10.458 0.713908 10.9972 0.457726C11.4997 0.199036 12.0489 0.0434119 12.6124 0C12.6282 0.137844 12.6282 0.272531 12.6282 0.400905C12.6134 1.43543 12.2247 2.42965 11.5338 3.19987C11.1994 3.64836 10.7708 4.01819 10.2781 4.28341C9.78553 4.54863 9.24082 4.7028 8.68227 4.73509Z" fill="#FAFAFA"/>
</svg>
