<svg width="22" height="22" viewBox="0 0 22 22" fill="none" xmlns="http://www.w3.org/2000/svg">
<path d="M5.39049 21.2326H16.1142C18.9384 21.2326 20.064 19.5033 20.197 17.3953L20.7291 8.94326C20.8724 6.73302 19.1124 4.86047 16.8919 4.86047C16.2677 4.86047 15.6947 4.50233 15.4082 3.94977L14.6714 2.46605C14.2007 1.53488 12.9728 0.767442 11.9291 0.767442H9.58584C8.53189 0.767442 7.30398 1.53488 6.83328 2.46605L6.09654 3.94977C5.81003 4.50233 5.237 4.86047 4.61282 4.86047C2.39235 4.86047 0.632352 6.73302 0.775607 8.94326L1.3077 17.3953C1.43049 19.5033 2.56631 21.2326 5.39049 21.2326Z" stroke="white" stroke-width="1.5" stroke-linecap="round" stroke-linejoin="round"/>
<path d="M9.21755 6.90698H12.2873" stroke="white" stroke-width="1.5" stroke-linecap="round" stroke-linejoin="round"/>
<path d="M10.7524 17.1395C12.5841 17.1395 14.078 15.6456 14.078 13.814C14.078 11.9823 12.5841 10.4884 10.7524 10.4884C8.9208 10.4884 7.42685 11.9823 7.42685 13.814C7.42685 15.6456 8.9208 17.1395 10.7524 17.1395Z" stroke="white" stroke-width="1.5" stroke-linecap="round" stroke-linejoin="round"/>
</svg>
