<svg width="14" height="15" viewBox="0 0 14 15" fill="none" xmlns="http://www.w3.org/2000/svg">
<path d="M13.1268 2.77548C12.004 2.66391 10.8813 2.58022 9.75155 2.51746V2.51049L9.59814 1.60392C9.49353 0.962354 9.34011 0 7.7083 0H5.88122C4.25638 0 4.10296 0.920512 3.99138 1.59695L3.84493 2.48957C3.19639 2.53141 2.54785 2.57325 1.89931 2.63601L0.476697 2.77548C0.183806 2.80338 -0.0254009 3.0614 0.00249342 3.34732C0.0303877 3.63323 0.281436 3.84244 0.574327 3.81455L1.99694 3.67507C5.65109 3.31245 9.33314 3.45192 13.0291 3.82152C13.0501 3.82152 13.064 3.82152 13.0849 3.82152C13.3499 3.82152 13.58 3.61929 13.6079 3.34732C13.6289 3.0614 13.4197 2.80338 13.1268 2.77548Z" fill="#FE5B28"/>
<path d="M11.8436 4.80445C11.6762 4.63011 11.4461 4.53248 11.209 4.53248H2.3944C2.1573 4.53248 1.9202 4.63011 1.75981 4.80445C1.59941 4.97879 1.50876 5.21589 1.5227 5.45997L1.95507 12.6149C2.03178 13.6748 2.12941 14.9998 4.56318 14.9998H9.04022C11.474 14.9998 11.5716 13.6818 11.6483 12.6149L12.0807 5.46694C12.0946 5.21589 12.004 4.97879 11.8436 4.80445ZM7.95931 11.5061H5.63711C5.3512 11.5061 5.1141 11.269 5.1141 10.983C5.1141 10.6971 5.3512 10.46 5.63711 10.46H7.95931C8.24523 10.46 8.48233 10.6971 8.48233 10.983C8.48233 11.269 8.24523 11.5061 7.95931 11.5061ZM8.5451 8.71663H5.05831C4.77239 8.71663 4.53529 8.47953 4.53529 8.19361C4.53529 7.9077 4.77239 7.67059 5.05831 7.67059H8.5451C8.83101 7.67059 9.06811 7.9077 9.06811 8.19361C9.06811 8.47953 8.83101 8.71663 8.5451 8.71663Z" fill="#FE5B28"/>
</svg>
