<svg width="22" height="19" viewBox="0 0 22 19" fill="none" xmlns="http://www.w3.org/2000/svg">
<path d="M14.7382 9.42865C14.7382 11.4961 13.0676 13.1667 11.0002 13.1667C8.93276 13.1667 7.26213 11.4961 7.26213 9.42865C7.26213 7.36124 8.93276 5.6906 11.0002 5.6906C13.0676 5.6906 14.7382 7.36124 14.7382 9.42865Z" stroke="#E7E7E7" stroke-width="1.5" stroke-linecap="round" stroke-linejoin="round"/>
<path d="M11.0001 18.0637C14.6859 18.0637 18.1212 15.8919 20.5123 12.133C21.452 10.6607 21.452 8.18611 20.5123 6.71387C18.1212 2.95494 14.6859 0.78311 11.0001 0.78311C7.31425 0.78311 3.87901 2.95494 1.48791 6.71387C0.548177 8.18611 0.548177 10.6607 1.48791 12.133C3.87901 15.8919 7.31425 18.0637 11.0001 18.0637Z" stroke="#E7E7E7" stroke-width="1.5" stroke-linecap="round" stroke-linejoin="round"/>
</svg>
