<svg width="12" height="14" viewBox="0 0 12 14" fill="none" xmlns="http://www.w3.org/2000/svg">
<path d="M11.8311 4.52961C11.1212 1.40621 8.39666 0 6.00341 0C6.00341 0 6.00341 0 5.99665 0C3.61015 0 0.878865 1.39945 0.169 4.52285C-0.621991 8.01132 1.51436 10.9657 3.4479 12.8249C4.16452 13.5145 5.08396 13.8592 6.00341 13.8592C6.92285 13.8592 7.84229 13.5145 8.55216 12.8249C10.4857 10.9657 12.622 8.01808 11.8311 4.52961ZM6.00341 7.91667C4.82706 7.91667 3.87382 6.96343 3.87382 5.78708C3.87382 4.61074 4.82706 3.65749 6.00341 3.65749C7.17975 3.65749 8.133 4.61074 8.133 5.78708C8.133 6.96343 7.17975 7.91667 6.00341 7.91667Z" fill="#E7E7E7"/>
</svg>
