<svg width="24" height="24" viewBox="0 0 24 24" fill="none" xmlns="http://www.w3.org/2000/svg">
<path d="M21.806 10.0415H21.0005V10H12.0005V14H17.652C16.8275 16.3285 14.612 18 12.0005 18C8.68699 18 6.00049 15.3135 6.00049 12C6.00049 8.6865 8.68699 6 12.0005 6C13.53 6 14.9215 6.577 15.981 7.5195L18.8095 4.691C17.0235 3.0265 14.6345 2 12.0005 2C6.47799 2 2.00049 6.4775 2.00049 12C2.00049 17.5225 6.47799 22 12.0005 22C17.523 22 22.0005 17.5225 22.0005 12C22.0005 11.3295 21.9315 10.675 21.806 10.0415Z" fill="#FFC107"/>
<path d="M3.15356 7.3455L6.43906 9.755C7.32806 7.554 9.48106 6 12.0006 6C13.5301 6 14.9216 6.577 15.9811 7.5195L18.8096 4.691C17.0236 3.0265 14.6346 2 12.0006 2C8.15956 2 4.82856 4.1685 3.15356 7.3455Z" fill="#FF3D00"/>
<path d="M11.9997 21.9999C14.5827 21.9999 16.9297 21.0114 18.7042 19.4039L15.6092 16.7849C14.5714 17.574 13.3034 18.0009 11.9997 17.9999C9.39867 17.9999 7.19017 16.3414 6.35817 14.0269L3.09717 16.5394C4.75217 19.7779 8.11317 21.9999 11.9997 21.9999Z" fill="#4CAF50"/>
<path d="M21.8055 10.0415H21V10H12V14H17.6515C17.2571 15.1082 16.5467 16.0766 15.608 16.7855L15.6095 16.7845L18.7045 19.4035C18.4855 19.6025 22 17 22 12C22 11.3295 21.931 10.675 21.8055 10.0415Z" fill="#1976D2"/>
</svg>
